<svg viewBox="0 0 100 100" xmlns="http://www.w3.org/2000/svg">
  <!-- Google Cloud official logo based on the provided image -->
  <defs>
    <path id="cloudShape" d="M25 40 C25 30 32 22 42 22 C45 22 48 23 50 25 C53 20 58 17 64 17 C72 17 78 23 78 31 C82 31 85 34 85 38 C85 42 82 45 78 45 L30 45 C27 45 25 43 25 40 Z"/>
  </defs>
  
  <!-- Cloud shape with Google's four colors -->
  <use href="#cloudShape" fill="#EA4335" transform="translate(0,10)"/>
  <use href="#cloudShape" fill="#FBBC04" transform="translate(0,20)"/>
  <use href="#cloudShape" fill="#34A853" transform="translate(0,30)"/>
  <use href="#cloudShape" fill="#4285F4" transform="translate(0,40)"/>
  
  <!-- Simplified version with proper cloud silhouette -->
  <path d="M20 50 C20 40 27 32 37 32 C40 32 43 33 45 35 C48 30 53 27 59 27 C67 27 73 33 73 41 C77 41 80 44 80 48 C80 52 77 55 73 55 L25 55 C22 55 20 53 20 50 Z" fill="#EA4335"/>
  <path d="M20 50 C20 40 27 32 37 32 C40 32 43 33 45 35" fill="#FBBC04"/>
  <path d="M73 55 C77 55 80 52 80 48 C80 44 77 41 73 41" fill="#34A853"/>
  <path d="M45 35 C48 30 53 27 59 27 C67 27 73 33 73 41" fill="#4285F4"/>
</svg>
